<?xml version="1.0" encoding="UTF-8"?>
<svg xmlns="http://www.w3.org/2000/svg" style="display: none;">
  <symbol id="twitter" viewBox="0 0 512 512">
    <path d="M459.4 151.7c.325 4.548 .325 9.097 .325 13.65 0 138.7-105.6 298.6-298.6 298.6-59.45 0-114.7-17.22-161.1-47.11 8.447 .974 16.57 1.299 25.34 1.299 49.06 0 94.21-16.57 130.3-44.83-46.13-.975-84.79-31.19-98.11-72.77 6.498 .974 12.99 1.624 19.82 1.624 9.421 0 18.84-1.3 27.61-3.573-48.08-9.747-84.14-51.98-84.14-102.1v-1.299c13.97 7.797 30.21 12.67 47.43 13.32-28.26-18.84-46.78-51.01-46.78-87.39 0-19.49 5.197-37.36 14.29-52.95 51.65 63.67 129.3 105.3 216.4 109.8-1.624-7.797-2.599-15.92-2.599-24.04 0-57.83 46.78-104.9 104.9-104.9 30.21 0 57.5 12.67 76.67 33.14 23.72-4.548 46.46-13.32 66.6-25.34-7.798 24.37-24.37 44.83-46.13 57.83 21.12-2.273 41.58-8.122 60.43-16.24-14.29 20.79-32.16 39.31-52.63 54.25z"></path>
  </symbol>
  <symbol id="twitter-square" viewBox="0 0 448 512">
    <path d="M400 32H48C21.5 32 0 53.5 0 80v352c0 26.5 21.5 48 48 48h352c26.5 0 48-21.5 48-48V80c0-26.5-21.5-48-48-48zm-48.9 158.8c.2 2.8 .2 5.7 .2 8.5 0 86.7-66 186.6-186.6 186.6-37.2 0-71.7-10.8-100.7-29.4 5.3 .6 10.4 .8 15.8 .8 30.7 0 58.9-10.4 81.4-28-28.8-.6-53-19.5-61.3-45.5 10.1 1.5 19.2 1.5 29.6-1.2-30-6.1-52.5-32.5-52.5-64.4v-.8c8.7 4.9 18.9 7.9 29.6 8.3a65.45 65.45 0 0 1 -29.2-54.6c0-12.2 3.2-23.4 8.9-33.1 32.3 39.8 80.8 65.8 135.2 68.6-9.3-44.5 24-80.6 64-80.6 18.9 0 35.9 7.9 47.9 20.7 14.8-2.8 29-8.3 41.6-15.8-4.9 15.2-15.2 28-28.8 36.1 13.2-1.4 26-5.1 37.8-10.2-8.9 13.1-20.1 24.7-32.9 34z"></path>
  </symbol>
   <symbol id="linkedin" viewBox="0 0 448 512">
    <path d="M416 32H31.9C14.3 32 0 46.5 0 64.3v383.4C0 465.5 14.3 480 31.9 480H416c17.6 0 32-14.5 32-32.3V64.3c0-17.8-14.4-32.3-32-32.3zM135.4 416H69V202.2h66.5V416zm-33.2-243c-21.3 0-38.5-17.3-38.5-38.5S80.9 96 102.2 96c21.2 0 38.5 17.3 38.5 38.5 0 21.3-17.2 38.5-38.5 38.5zm282.1 243h-66.4V312c0-24.8-.5-56.7-34.5-56.7-34.6 0-39.9 27-39.9 54.9V416h-66.4V202.2h63.7v29.2h.9c8.9-16.8 30.6-34.5 62.9-34.5 67.2 0 79.7 44.3 79.7 101.9V416z"></path>
  </symbol>
  <symbol id="linkedin-in" viewBox="0 0 448 512">
    <path d="M100.3 448H7.4V148.9h92.88zM53.79 108.1C24.09 108.1 0 83.5 0 53.8a53.79 53.79 0 0 1 107.6 0c0 29.7-24.1 54.3-53.79 54.3zM447.9 448h-92.68V302.4c0-34.7-.7-79.2-48.29-79.2-48.29 0-55.69 37.7-55.69 76.7V448h-92.78V148.9h89.08v40.8h1.3c12.4-23.5 42.69-48.3 87.88-48.3 94 0 111.3 61.9 111.3 142.3V448z"></path>
  </symbol>
    <symbol id="github" viewBox="0 0 496 512">
    <path d="M165.9 397.4c0 2-2.3 3.6-5.2 3.6-3.3 .3-5.6-1.3-5.6-3.6 0-2 2.3-3.6 5.2-3.6 3-.3 5.6 1.3 5.6 3.6zm-31.1-4.5c-.7 2 1.3 4.3 4.3 4.9 2.6 1 5.6 0 6.2-2s-1.3-4.3-4.3-5.2c-2.6-.7-5.5 .3-6.2 2.3zm44.2-1.7c-2.9 .7-4.9 2.6-4.6 4.9 .3 2 2.9 3.3 5.9 2.6 2.9-.7 4.9-2.6 4.6-4.6-.3-1.9-3-3.2-5.9-2.9zM244.8 8C106.1 8 0 113.3 0 252c0 110.9 69.8 205.8 169.5 239.2 12.8 2.3 17.3-5.6 17.3-12.1 0-6.2-.3-40.4-.3-61.4 0 0-70 15-84.7-29.8 0 0-11.4-29.1-27.8-36.6 0 0-22.9-15.7 1.6-15.4 0 0 24.9 2 38.6 25.8 21.9 38.6 58.6 27.5 72.9 20.9 2.3-16 8.8-27.1 16-33.7-55.9-6.2-112.3-14.3-112.3-110.5 0-27.5 7.6-41.3 23.6-58.9-2.6-6.5-11.1-33.3 2.6-67.9 20.9-6.5 69 27 69 27 20-5.6 41.5-8.5 62.8-8.5s42.8 2.9 62.8 8.5c0 0 48.1-33.6 69-27 13.7 34.7 5.2 61.4 2.6 67.9 16 17.7 25.8 31.5 25.8 58.9 0 96.5-58.9 104.2-114.8 110.5 9.2 7.9 17 22.9 17 46.4 0 33.7-.3 75.4-.3 83.6 0 6.5 4.6 14.4 17.3 12.1C428.2 457.8 496 362.9 496 252 496 113.3 383.5 8 244.8 8zM97.2 352.9c-1.3 1-1 3.3 .7 5.2 1.6 1.6 3.9 2.3 5.2 1 1.3-1 1-3.3-.7-5.2-1.6-1.6-3.9-2.3-5.2-1zm-10.8-8.1c-.7 1.3 .3 2.9 2.3 3.9 1.6 1 3.6 .7 4.3-.7 .7-1.3-.3-2.9-2.3-3.9-2-.6-3.6-.3-4.3 .7zm32.4 35.6c-1.6 1.3-1 4.3 1.3 6.2 2.3 2.3 5.2 2.6 6.5 1 1.3-1.3 .7-4.3-1.3-6.2-2.2-2.3-5.2-2.6-6.5-1zm-11.4-14.7c-1.6 1-1.6 3.6 0 5.9 1.6 2.3 4.3 3.3 5.6 2.3 1.6-1.3 1.6-3.9 0-6.2-1.4-2.3-4-3.3-5.6-2z"></path>
  </symbol>
  <symbol id="github-alt" viewBox="0 0 480 512">
    <path d="M186.1 328.7c0 20.9-10.9 55.1-36.7 55.1s-36.7-34.2-36.7-55.1 10.9-55.1 36.7-55.1 36.7 34.2 36.7 55.1zM480 278.2c0 31.9-3.2 65.7-17.5 95-37.9 76.6-142.1 74.8-216.7 74.8-75.8 0-186.2 2.7-225.6-74.8-14.6-29-20.2-63.1-20.2-95 0-41.9 13.9-81.5 41.5-113.6-5.2-15.8-7.7-32.4-7.7-48.8 0-21.5 4.9-32.3 14.6-51.8 45.3 0 74.3 9 108.8 36 29-6.9 58.8-10 88.7-10 27 0 54.2 2.9 80.4 9.2 34-26.7 63-35.2 107.8-35.2 9.8 19.5 14.6 30.3 14.6 51.8 0 16.4-2.6 32.7-7.7 48.2 27.5 32.4 39 72.3 39 114.2zm-64.3 50.5c0-43.9-26.7-82.6-73.5-82.6-18.9 0-37 3.4-56 6-14.9 2.3-29.8 3.2-45.1 3.2-15.2 0-30.1-.9-45.1-3.2-18.7-2.6-37-6-56-6-46.8 0-73.5 38.7-73.5 82.6 0 87.8 80.4 101.3 150.4 101.3h48.2c70.3 0 150.6-13.4 150.6-101.3zm-82.6-55.1c-25.8 0-36.7 34.2-36.7 55.1s10.9 55.1 36.7 55.1 36.7-34.2 36.7-55.1-10.9-55.1-36.7-55.1z"></path>
  </symbol>
  <symbol id="github-square" viewBox="0 0 448 512">
    <path d="M400 32H48C21.5 32 0 53.5 0 80v352c0 26.5 21.5 48 48 48h352c26.5 0 48-21.5 48-48V80c0-26.5-21.5-48-48-48zM277.3 415.7c-8.4 1.5-11.5-3.7-11.5-8 0-5.4 .2-33 .2-55.3 0-15.6-5.2-25.5-11.3-30.7 37-4.1 76-9.2 76-73.1 0-18.2-6.5-27.3-17.1-39 1.7-4.3 7.4-22-1.7-45-13.9-4.3-45.7 17.9-45.7 17.9-13.2-3.7-27.5-5.6-41.6-5.6-14.1 0-28.4 1.9-41.6 5.6 0 0-31.8-22.2-45.7-17.9-9.1 22.9-3.5 40.6-1.7 45-10.6 11.7-15.6 20.8-15.6 39 0 63.6 37.3 69 74.3 73.1-4.8 4.3-9.1 11.7-10.6 22.3-9.5 4.3-33.8 11.7-48.3-13.9-9.1-15.8-25.5-17.1-25.5-17.1-16.2-.2-1.1 10.2-1.1 10.2 10.8 5 18.4 24.2 18.4 24.2 9.7 29.7 56.1 19.7 56.1 19.7 0 13.9 .2 36.5 .2 40.6 0 4.3-3 9.5-11.5 8-66-22.1-112.2-84.9-112.2-158.3 0-91.8 70.2-161.5 162-161.5S388 165.6 388 257.4c.1 73.4-44.7 136.3-110.7 158.3zm-98.1-61.1c-1.9 .4-3.7-.4-3.9-1.7-.2-1.5 1.1-2.8 3-3.2 1.9-.2 3.7 .6 3.9 1.9 .3 1.3-1 2.6-3 3zm-9.5-.9c0 1.3-1.5 2.4-3.5 2.4-2.2 .2-3.7-.9-3.7-2.4 0-1.3 1.5-2.4 3.5-2.4 1.9-.2 3.7 .9 3.7 2.4zm-13.7-1.1c-.4 1.3-2.4 1.9-4.1 1.3-1.9-.4-3.2-1.9-2.8-3.2 .4-1.3 2.4-1.9 4.1-1.5 2 .6 3.3 2.1 2.8 3.4zm-12.3-5.4c-.9 1.1-2.8 .9-4.3-.6-1.5-1.3-1.9-3.2-.9-4.1 .9-1.1 2.8-.9 4.3 .6 1.3 1.3 1.8 3.3 .9 4.1zm-9.1-9.1c-.9 .6-2.6 0-3.7-1.5s-1.1-3.2 0-3.9c1.1-.9 2.8-.2 3.7 1.3 1.1 1.5 1.1 3.3 0 4.1zm-6.5-9.7c-.9 .9-2.4 .4-3.5-.6-1.1-1.3-1.3-2.8-.4-3.5 .9-.9 2.4-.4 3.5 .6 1.1 1.3 1.3 2.8 .4 3.5zm-6.7-7.4c-.4 .9-1.7 1.1-2.8 .4-1.3-.6-1.9-1.7-1.5-2.6 .4-.6 1.5-.9 2.8-.4 1.3 .7 1.9 1.8 1.5 2.6z"></path>
  </symbol>
  <symbol id="instagram" viewBox="0 0 448 512">
    <path d="M224.1 141c-63.6 0-114.9 51.3-114.9 114.9s51.3 114.9 114.9 114.9S339 319.5 339 255.9 287.7 141 224.1 141zm0 189.6c-41.1 0-74.7-33.5-74.7-74.7s33.5-74.7 74.7-74.7 74.7 33.5 74.7 74.7-33.6 74.7-74.7 74.7zm146.4-194.3c0 14.9-12 26.8-26.8 26.8-14.9 0-26.8-12-26.8-26.8s12-26.8 26.8-26.8 26.8 12 26.8 26.8zm76.1 27.2c-1.7-35.9-9.9-67.7-36.2-93.9-26.2-26.2-58-34.4-93.9-36.2-37-2.1-147.9-2.1-184.9 0-35.8 1.7-67.6 9.9-93.9 36.1s-34.4 58-36.2 93.9c-2.1 37-2.1 147.9 0 184.9 1.7 35.9 9.9 67.7 36.2 93.9s58 34.4 93.9 36.2c37 2.1 147.9 2.1 184.9 0 35.9-1.7 67.7-9.9 93.9-36.2 26.2-26.2 34.4-58 36.2-93.9 2.1-37 2.1-147.8 0-184.8zM398.8 388c-7.8 19.6-22.9 34.7-42.6 42.6-29.5 11.7-99.5 9-132.1 9s-102.7 2.6-132.1-9c-19.6-7.8-34.7-22.9-42.6-42.6-11.7-29.5-9-99.5-9-132.1s-2.6-102.7 9-132.1c7.8-19.6 22.9-34.7 42.6-42.6 29.5-11.7 99.5-9 132.1-9s102.7-2.6 132.1 9c19.6 7.8 34.7 22.9 42.6 42.6 11.7 29.5 9 99.5 9 132.1s2.7 102.7-9 132.1z"></path>
  </symbol>
  <symbol id="instagram-square" viewBox="0 0 448 512">
    <path d="M224 202.7A53.34 53.34 0 1 0 277.4 256 53.38 53.38 0 0 0 224 202.7zm124.7-41a54 54 0 0 0 -30.41-30.41c-21-8.29-71-6.43-94.3-6.43s-73.25-1.93-94.31 6.43a54 54 0 0 0 -30.41 30.41c-8.28 21-6.43 71.05-6.43 94.33S91 329.3 99.32 350.3a54 54 0 0 0 30.41 30.41c21 8.29 71 6.43 94.31 6.43s73.24 1.93 94.3-6.43a54 54 0 0 0 30.41-30.41c8.35-21 6.43-71.05 6.43-94.33S357.1 182.7 348.8 161.7zM224 338a82 82 0 1 1 82-82A81.9 81.9 0 0 1 224 338zm85.38-148.3a19.14 19.14 0 1 1 19.13-19.14A19.1 19.1 0 0 1 309.4 189.7zM400 32H48A48 48 0 0 0 0 80V432a48 48 0 0 0 48 48H400a48 48 0 0 0 48-48V80A48 48 0 0 0 400 32zM382.9 322c-1.29 25.63-7.14 48.34-25.85 67s-41.4 24.63-67 25.85c-26.41 1.49-105.6 1.49-132 0-25.63-1.29-48.26-7.15-67-25.85s-24.63-41.42-25.85-67c-1.49-26.42-1.49-105.6 0-132 1.29-25.63 7.07-48.34 25.85-67s41.47-24.56 67-25.78c26.41-1.49 105.6-1.49 132 0 25.63 1.29 48.33 7.15 67 25.85s24.63 41.42 25.85 67.05C384.4 216.4 384.4 295.6 382.9 322z"></path>
  </symbol>
  <symbol id="codeforces" viewBox="0 0 24 24">
  <path d="M4.5 7.5C5.328 7.5 6 8.172 6 9v10.5c0 .828-.672 1.5-1.5 1.5h-3C.673 21 0 20.328 0 19.5V9c0-.828.673-1.5 1.5-1.5h3zm9-4.5c.828 0 1.5.672 1.5 1.5v15c0 .828-.672 1.5-1.5 1.5h-3c-.827 0-1.5-.672-1.5-1.5v-15c0-.828.673-1.5 1.5-1.5h3zm9 7.5c.828 0 1.5.672 1.5 1.5v7.5c0 .828-.672 1.5-1.5 1.5h-3c-.828 0-1.5-.672-1.5-1.5V12c0-.828.672-1.5 1.5-1.5h3z"/>
  </symbol>
  <symbol id="codechef" viewBox="0 0 24 24">
  <path d="M11.007 0c-.787.031-1.515.37-2.222.685a12.27 12.27 0 01-1.864.703c-.635.176-1.3.354-1.814.788-.222.18-.356.439-.529.662-.309.486-.448 1.067-.457 1.638.036.61.216 1.2.376 1.786.368 1.262.807 2.503 1.197 3.759.366 1.161.703 2.344 1.294 3.416.197.394.35.808.535 1.206.027.067.052.158.142.149.136-.012.243-.115.368-.164.828-.414 1.74-.642 2.655-.749.708-.074 1.43-.078 2.131.054.72.163 1.417.426 2.092.724.36.172.719.348 1.088.498.048.04.135.058.16-.016.219-.327.469-.635.667-.976.495-1.061.522-2.279 1.038-3.331.358-.721.892-1.337 1.266-2.048.175-.266.431-.467.588-.747.437-.669.78-1.398 1.05-2.15.102-.293.172-.612.09-.919-.06-.299-.202-.57-.318-.848a2.481 2.481 0 00-.278-.66c-.407-.676-1.07-1.149-1.743-1.536-1.045-.59-2.196-.969-3.351-1.28A20.733 20.733 0 0011.426.01a5.005 5.005 0 00-.42-.01zm-.889.606c-.261.223-.363.569-.468.883-.168.568-.263 1.163-.207 1.756.064 1.062.197 2.12.33 3.175.18 1.352.387 2.7.677 4.034.026.165.064.347.05.51-.115-.175-.182-.383-.258-.58-.25-.765-.432-1.549-.604-2.334a26.008 26.008 0 01-.562-4.317c-.025-.843-.004-1.726.37-2.501.118-.226.259-.46.48-.597a.411.411 0 01.218-.049l-.026.02zM6.516 1.77c.128 0 .139.159.168.252.266.798.422 1.628.679 2.428.174.649.238 1.323.308 1.991.097 1.039.108 2.085.246 3.12.026.199.082.393.119.59.01.067-.059.049-.083.014-.148-.161-.183-.391-.246-.592-.16-.645-.242-1.305-.334-1.962-.174-1.316-.287-2.64-.529-3.945-.158-.612-.356-1.215-.46-1.838.006-.051.093-.048.132-.058zM4.589 3.607c.229.056.365.268.512.434.4.535.54 1.204.695 1.843.283 1.265.446 2.553.725 3.82.131.666.293 1.326.507 1.971.014.051.035.133.038.17-.233-.43-.393-.896-.565-1.353-.598-1.698-.823-3.496-1.3-5.228-.133-.478-.308-.95-.596-1.358-.047-.088-.08-.204-.037-.297.006-.004.014-.003.02-.002zm12.646 13.196c-.136.007-.31.11-.276.267.094.218.334.308.526.416.441.216.938.29 1.358.546.092.06.149.197.064.287-.18.266-.47.44-.723.634-.372.266-.777.51-1.057.879-.066.107-.041.267.082.32.109.079.243.018.338-.051.518-.294.995-.654 1.478-1.002.32-.239.644-.477.926-.76.085-.135-.03-.274-.118-.371-.273-.285-.62-.487-.965-.67a4.959 4.959 0 00-1.458-.495 1.251 1.251 0 00-.175 0zM5.96 16.83c-.527.134-.997.42-1.474.673-.425.243-.854.496-1.205.841a.699.699 0 00-.172.488c.065.108.2.14.301.206.852.442 1.735.822 2.63 1.168.132.042.265.113.406.107.158-.02.309-.204.213-.356-.146-.243-.42-.361-.65-.506-.547-.303-1.154-.512-1.636-.918-.046-.091.094-.128.142-.18.549-.395 1.229-.593 1.713-1.077.089-.09.164-.259.048-.358-.086-.073-.206-.087-.316-.088zm8.115.793c-.43.027-.835.431-.774.876.032.259.089.525.228.749.12.18.33.286.546.287.273.031.59-.059.726-.318.137-.237.212-.514.205-.787-.038-.46-.466-.845-.93-.807zm-4.49.01c-.464.028-.807.505-.77.953.011.444.315.902.765.994.352.06.71-.19.803-.53.125-.35.132-.761-.044-1.095-.157-.25-.478-.327-.754-.322zm.112.653c.241.064.294.47.045.558-.141.034-.239-.12-.234-.244-.008-.127.05-.287.189-.314zm4.437.143c.097 0 .226.071.19.187-.013.171-.215.333-.377.226-.132-.07-.172-.296-.02-.368a.418.418 0 01.207-.045zm-3.518 2.977c-.553.051-1.044.335-1.542.559-.304.156-.662.312-1.005.187-.377-.12-.707-.35-1.059-.52-.075-.013-.061.077-.047.122.081.53.129 1.102.454 1.55.338.437.902.618 1.433.667.797.072 1.642-.118 2.271-.629.309-.262.571-.631.585-1.049-.006-.324-.244-.596-.524-.734a1.085 1.085 0 00-.566-.153zm2.58.008c-.396.052-.815.262-.972.65-.129.358.034.748.272 1.02.426.509 1.07.793 1.718.884.577.078 1.186.014 1.714-.24.438-.225.767-.655.85-1.142.064-.291.081-.59.124-.884-.066-.078-.148.038-.218.052-.337.142-.647.367-1.01.435-.363.024-.687-.172-1.015-.293-.43-.178-.851-.403-1.315-.478a1.21 1.21 0 00-.147-.004zm-2.881-5.091c-.07 0-.143.014-.216.03a2.93 2.93 0 00-.454.152c-.15.061-.292.127-.407.18a4.07 4.07 0 01-.218.092.277.277 0 01-.182-.034c-.062-.037-.12-.101-.141-.255l-.27.038c.031.218.14.37.27.45.13.079.268.09.378.067.085-.018.16-.058.276-.111.116-.053.255-.118.397-.176.143-.058.288-.11.41-.138a.52.52 0 01.252-.009c.14.06.19.13.215.179.025.05.03.067.03.067l.263-.06s.002-.024-.05-.128a.678.678 0 00-.35-.307.482.482 0 00-.204-.037zm2.744 3.937a.136.136 0 00-.102.05s-.122.148-.286.295c-.165.148-.38.28-.493.283-.112.003-.314-.118-.47-.26-.155-.14-.267-.284-.267-.284a.136.136 0 10-.214.167s.124.16.299.319c.175.16.397.337.66.33.259-.008.484-.19.666-.352.182-.163.315-.325.315-.325a.136.136 0 00-.108-.223zM11.007.001c-.787.03-1.515.368-2.222.684a12.27 12.27 0 01-1.864.703c-.635.176-1.3.354-1.814.788-.222.18-.356.44-.529.663-.309.485-.448 1.066-.457 1.637.036.61.216 1.2.376 1.786.368 1.263.807 2.503 1.197 3.759.366 1.161.703 2.344 1.294 3.417.197.393.35.807.535 1.205.027.067.052.158.142.15.136-.013.243-.116.368-.165.828-.414 1.74-.641 2.655-.749.708-.074 1.43-.078 2.131.055.72.163 1.417.425 2.092.723.36.172.719.348 1.088.498.048.04.135.058.16-.016.219-.327.469-.635.667-.975.495-1.062.522-2.28 1.038-3.332.358-.721.892-1.336 1.266-2.047.175-.266.431-.468.588-.747.437-.67.78-1.4 1.05-2.151.102-.293.172-.612.09-.919-.06-.298-.202-.57-.318-.848a2.481 2.481 0 00-.278-.659c-.407-.676-1.07-1.15-1.743-1.536-1.045-.591-2.196-.97-3.351-1.281A20.733 20.733 0 0011.426.01a5.005 5.005 0 00-.42-.01zm-.889.606c-.261.222-.363.568-.468.883-.168.567-.263 1.163-.207 1.755.064 1.062.197 2.12.33 3.175.18 1.352.387 2.701.677 4.034.026.165.064.347.05.51-.115-.175-.182-.383-.258-.58-.25-.765-.432-1.549-.604-2.334a26.008 26.008 0 01-.562-4.316c-.025-.844-.004-1.727.37-2.502.118-.225.259-.46.48-.597a.411.411 0 01.218-.049l-.026.02zM6.516 1.77c.128 0 .139.16.168.252.266.798.422 1.628.679 2.429.174.648.238 1.322.308 1.99.097 1.04.108 2.086.246 3.12.026.199.082.394.119.59.01.068-.059.05-.083.014-.148-.16-.183-.39-.246-.592-.16-.645-.242-1.304-.334-1.962-.174-1.315-.287-2.64-.529-3.945-.158-.612-.356-1.215-.46-1.838.006-.051.093-.048.132-.058zM4.589 3.608c.229.055.365.267.512.433.4.535.54 1.204.695 1.843.283 1.265.446 2.554.725 3.82.131.666.293 1.327.507 1.971.014.051.035.133.038.17-.233-.43-.393-.896-.565-1.352-.598-1.7-.823-3.497-1.3-5.23-.133-.477-.308-.95-.596-1.357-.047-.087-.08-.204-.037-.296.006-.004.014-.003.02-.002zm12.646 13.195c-.136.007-.31.11-.276.268.094.217.334.307.526.416.441.215.938.289 1.358.545.092.06.149.197.064.287-.18.267-.47.44-.723.634-.372.266-.777.51-1.057.879-.066.107-.041.267.082.32.109.079.243.019.338-.05.518-.295.995-.655 1.478-1.002.32-.24.644-.478.926-.761.085-.135-.03-.274-.118-.37-.273-.286-.62-.488-.965-.672a4.959 4.959 0 00-1.458-.493 1.251 1.251 0 00-.175-.001zm-11.276.029c-.527.133-.997.42-1.474.672-.425.243-.854.497-1.205.842a.699.699 0 00-.172.487c.065.109.2.14.301.206.852.442 1.735.823 2.63 1.168.132.042.265.113.406.108.158-.02.309-.205.213-.357-.146-.243-.42-.361-.65-.506-.547-.303-1.154-.512-1.636-.918-.046-.09.094-.128.142-.18.549-.394 1.229-.592 1.713-1.077.089-.09.164-.258.048-.357-.086-.074-.206-.088-.316-.088zm8.115.792c-.43.028-.835.432-.774.876.032.26.089.526.228.75.12.179.33.285.546.287.273.03.59-.06.726-.319.137-.236.212-.514.205-.787-.038-.46-.466-.844-.93-.807zm-4.49.01c-.464.028-.807.505-.77.953.011.444.315.902.765.995.352.059.71-.19.803-.53.125-.35.132-.762-.044-1.096-.157-.249-.478-.327-.754-.322zm.112.654c.241.063.294.47.045.557-.141.034-.239-.12-.234-.244-.008-.127.05-.287.189-.313zm4.437.142c.097 0 .226.072.19.187-.013.172-.215.333-.377.227-.132-.071-.172-.297-.02-.369a.418.418 0 01.207-.045zm-3.518 2.977c-.553.052-1.044.336-1.542.56-.304.155-.662.311-1.005.186-.377-.119-.707-.35-1.059-.52-.075-.012-.061.078-.047.122.081.53.129 1.102.454 1.55.338.438.902.619 1.433.667.797.072 1.642-.118 2.271-.629.309-.262.571-.63.585-1.049-.006-.324-.244-.596-.524-.734a1.085 1.085 0 00-.566-.153zm2.58.008c-.396.052-.815.262-.972.65-.129.359.034.748.272 1.021.426.508 1.07.792 1.718.883.577.078 1.186.015 1.714-.24.438-.225.767-.655.85-1.142.064-.29.081-.59.124-.884-.066-.077-.148.039-.218.052-.337.143-.647.367-1.01.436-.363.024-.687-.172-1.015-.294-.43-.178-.851-.402-1.315-.477a1.21 1.21 0 00-.147-.004z"/>
  </symbol>
  <symbol id="folder" viewBox="0 0 24 24">
    <path d="M22 19a2 2 0 0 1-2 2H4a2 2 0 0 1-2-2V5a2 2 0 0 1 2-2h5l2 3h9a2 2 0 0 1 2 2z"></path>
  </symbol>
  <!-- <symbol id="github" viewBox="0 0 24 24">
    <path d="M9 19c-5 1.5-5-2.5-7-3m14 6v-3.87a3.37 3.37 0 0 0-.94-2.61c3.14-.35 6.44-1.54 6.44-7A5.44 5.44 0 0 0 20 4.77 5.07 5.07 0 0 0 19.91 1S18.73.65 16 2.48a13.38 13.38 0 0 0-7 0C6.27.65 5.09 1 5.09 1A5.07 5.07 0 0 0 5 4.77a5.44 5.44 0 0 0-1.5 3.78c0 5.42 3.3 6.61 6.44 7A3.37 3.37 0 0 0 9 18.13V22"></path>
  </symbol> -->
</svg>
